<mxfile host="app.diagrams.net" modified="2023-06-28T09:07:00.326Z" agent="Mozilla/5.0 (Windows NT 10.0; Win64; x64) AppleWebKit/537.36 (KHTML, like Gecko) Chrome/114.0.0.0 Safari/537.36" etag="KUSrzj9fgwNNg9W2G8B8" version="21.5.0" type="device">
  <diagram name="페이지-1" id="1_4jLRTt6C4VgZk9_CI8">
    <mxGraphModel dx="683" dy="436" grid="1" gridSize="10" guides="1" tooltips="1" connect="1" arrows="1" fold="1" page="1" pageScale="1" pageWidth="827" pageHeight="1169" math="0" shadow="0">
      <root>
        <mxCell id="0" />
        <mxCell id="1" parent="0" />
        <mxCell id="UnH_teKRYjCoHpWosyrO-1" value="담당자" style="shape=umlActor;verticalLabelPosition=bottom;verticalAlign=top;html=1;outlineConnect=0;" parent="1" vertex="1">
          <mxGeometry x="31" y="404" width="30" height="60" as="geometry" />
        </mxCell>
        <mxCell id="0yb1WNiDXI75J15WsoSP-32" style="edgeStyle=orthogonalEdgeStyle;rounded=0;orthogonalLoop=1;jettySize=auto;html=1;exitX=0.5;exitY=1;exitDx=0;exitDy=0;entryX=0.5;entryY=1;entryDx=0;entryDy=0;entryPerimeter=0;" parent="1" source="UnH_teKRYjCoHpWosyrO-8" target="UnH_teKRYjCoHpWosyrO-42" edge="1">
          <mxGeometry relative="1" as="geometry">
            <Array as="points">
              <mxPoint x="300" y="528" />
              <mxPoint x="300" y="750" />
              <mxPoint x="1028" y="750" />
            </Array>
          </mxGeometry>
        </mxCell>
        <mxCell id="UnH_teKRYjCoHpWosyrO-82" value="세무매니저 시스템" style="swimlane;whiteSpace=wrap;html=1;fillColor=#fff2cc;strokeColor=#FFD966;strokeWidth=2;" parent="1" vertex="1">
          <mxGeometry x="90" y="269" width="869" height="460" as="geometry" />
        </mxCell>
        <mxCell id="0yb1WNiDXI75J15WsoSP-33" style="edgeStyle=orthogonalEdgeStyle;rounded=0;orthogonalLoop=1;jettySize=auto;html=1;exitX=0.5;exitY=0;exitDx=0;exitDy=0;" parent="UnH_teKRYjCoHpWosyrO-82" source="0yb1WNiDXI75J15WsoSP-4" edge="1">
          <mxGeometry relative="1" as="geometry">
            <mxPoint x="939" y="171" as="targetPoint" />
            <Array as="points">
              <mxPoint x="204" y="-19" />
              <mxPoint x="939" y="-19" />
            </Array>
          </mxGeometry>
        </mxCell>
        <mxCell id="0yb1WNiDXI75J15WsoSP-5" value="" style="endArrow=none;html=1;rounded=0;entryX=0.367;entryY=0.967;entryDx=0;entryDy=0;entryPerimeter=0;" parent="UnH_teKRYjCoHpWosyrO-82" target="UnH_teKRYjCoHpWosyrO-2" edge="1">
          <mxGeometry width="50" height="50" relative="1" as="geometry">
            <mxPoint x="-31" y="270" as="sourcePoint" />
            <mxPoint x="14" y="242" as="targetPoint" />
          </mxGeometry>
        </mxCell>
        <mxCell id="0yb1WNiDXI75J15WsoSP-7" value="" style="endArrow=none;html=1;rounded=0;entryX=0;entryY=0.5;entryDx=0;entryDy=0;" parent="UnH_teKRYjCoHpWosyrO-82" target="UnH_teKRYjCoHpWosyrO-3" edge="1">
          <mxGeometry width="50" height="50" relative="1" as="geometry">
            <mxPoint x="-31" y="270" as="sourcePoint" />
            <mxPoint x="35" y="250" as="targetPoint" />
          </mxGeometry>
        </mxCell>
        <mxCell id="UnH_teKRYjCoHpWosyrO-3" value="사용자/담당자&lt;br&gt;구분 로그인" style="ellipse;whiteSpace=wrap;html=1;" parent="UnH_teKRYjCoHpWosyrO-82" vertex="1">
          <mxGeometry x="17" y="90" width="90" height="30" as="geometry" />
        </mxCell>
        <mxCell id="UnH_teKRYjCoHpWosyrO-8" value="메인메뉴(홈)" style="ellipse;whiteSpace=wrap;html=1;" parent="UnH_teKRYjCoHpWosyrO-82" vertex="1">
          <mxGeometry x="176" y="96" width="90" height="30" as="geometry" />
        </mxCell>
        <mxCell id="UnH_teKRYjCoHpWosyrO-10" value="&amp;lt;&amp;lt;include&amp;gt;&amp;gt;" style="html=1;verticalAlign=bottom;labelBackgroundColor=none;endArrow=open;endFill=0;dashed=1;rounded=0;" parent="UnH_teKRYjCoHpWosyrO-82" edge="1">
          <mxGeometry width="160" relative="1" as="geometry">
            <mxPoint x="107" y="110.5" as="sourcePoint" />
            <mxPoint x="177" y="111" as="targetPoint" />
          </mxGeometry>
        </mxCell>
        <mxCell id="UnH_teKRYjCoHpWosyrO-13" value="신고의뢰" style="ellipse;whiteSpace=wrap;html=1;" parent="UnH_teKRYjCoHpWosyrO-82" vertex="1">
          <mxGeometry x="337" y="51" width="90" height="30" as="geometry" />
        </mxCell>
        <mxCell id="UnH_teKRYjCoHpWosyrO-14" value="&amp;lt;&amp;lt;extend&amp;gt;&amp;gt;" style="html=1;verticalAlign=bottom;labelBackgroundColor=none;endArrow=open;endFill=0;dashed=1;rounded=0;entryX=1;entryY=0.5;entryDx=0;entryDy=0;" parent="UnH_teKRYjCoHpWosyrO-82" edge="1">
          <mxGeometry width="160" relative="1" as="geometry">
            <mxPoint x="337" y="65.5" as="sourcePoint" />
            <mxPoint x="267" y="110" as="targetPoint" />
          </mxGeometry>
        </mxCell>
        <mxCell id="UnH_teKRYjCoHpWosyrO-15" value="내역조회" style="ellipse;whiteSpace=wrap;html=1;" parent="UnH_teKRYjCoHpWosyrO-82" vertex="1">
          <mxGeometry x="337" y="111" width="90" height="30" as="geometry" />
        </mxCell>
        <mxCell id="UnH_teKRYjCoHpWosyrO-16" value="&amp;lt;&amp;lt;extend&amp;gt;&amp;gt;" style="html=1;verticalAlign=bottom;labelBackgroundColor=none;endArrow=open;endFill=0;dashed=1;rounded=0;exitX=0;exitY=0.5;exitDx=0;exitDy=0;" parent="UnH_teKRYjCoHpWosyrO-82" source="UnH_teKRYjCoHpWosyrO-15" edge="1">
          <mxGeometry width="160" relative="1" as="geometry">
            <mxPoint x="347" y="75.5" as="sourcePoint" />
            <mxPoint x="267" y="111" as="targetPoint" />
          </mxGeometry>
        </mxCell>
        <mxCell id="UnH_teKRYjCoHpWosyrO-17" value="&amp;lt;&amp;lt;include&amp;gt;&amp;gt;" style="html=1;verticalAlign=bottom;labelBackgroundColor=none;endArrow=open;endFill=0;dashed=1;rounded=0;" parent="UnH_teKRYjCoHpWosyrO-82" edge="1">
          <mxGeometry width="160" relative="1" as="geometry">
            <mxPoint x="427" y="64.5" as="sourcePoint" />
            <mxPoint x="497" y="65" as="targetPoint" />
          </mxGeometry>
        </mxCell>
        <mxCell id="UnH_teKRYjCoHpWosyrO-18" value="주요정보" style="ellipse;whiteSpace=wrap;html=1;" parent="UnH_teKRYjCoHpWosyrO-82" vertex="1">
          <mxGeometry x="497" y="51" width="90" height="30" as="geometry" />
        </mxCell>
        <mxCell id="UnH_teKRYjCoHpWosyrO-19" value="&amp;lt;&amp;lt;include&amp;gt;&amp;gt;" style="html=1;verticalAlign=bottom;labelBackgroundColor=none;endArrow=open;endFill=0;dashed=1;rounded=0;" parent="UnH_teKRYjCoHpWosyrO-82" edge="1">
          <mxGeometry width="160" relative="1" as="geometry">
            <mxPoint x="587" y="64.5" as="sourcePoint" />
            <mxPoint x="657" y="65" as="targetPoint" />
          </mxGeometry>
        </mxCell>
        <mxCell id="UnH_teKRYjCoHpWosyrO-20" value="자료제출" style="ellipse;whiteSpace=wrap;html=1;" parent="UnH_teKRYjCoHpWosyrO-82" vertex="1">
          <mxGeometry x="657" y="51" width="90" height="30" as="geometry" />
        </mxCell>
        <mxCell id="UnH_teKRYjCoHpWosyrO-21" value="&amp;lt;&amp;lt;include&amp;gt;&amp;gt;" style="html=1;verticalAlign=bottom;labelBackgroundColor=none;endArrow=open;endFill=0;dashed=1;rounded=0;" parent="UnH_teKRYjCoHpWosyrO-82" target="UnH_teKRYjCoHpWosyrO-22" edge="1">
          <mxGeometry width="160" relative="1" as="geometry">
            <mxPoint x="427" y="124.5" as="sourcePoint" />
            <mxPoint x="497" y="125" as="targetPoint" />
          </mxGeometry>
        </mxCell>
        <mxCell id="UnH_teKRYjCoHpWosyrO-22" value="주요정보" style="ellipse;whiteSpace=wrap;html=1;" parent="UnH_teKRYjCoHpWosyrO-82" vertex="1">
          <mxGeometry x="497" y="110" width="80" height="30" as="geometry" />
        </mxCell>
        <mxCell id="UnH_teKRYjCoHpWosyrO-23" value="&amp;lt;&amp;lt;extend&amp;gt;&amp;gt;" style="html=1;verticalAlign=bottom;labelBackgroundColor=none;endArrow=open;endFill=0;dashed=1;rounded=0;entryX=0.5;entryY=1;entryDx=0;entryDy=0;" parent="UnH_teKRYjCoHpWosyrO-82" target="UnH_teKRYjCoHpWosyrO-22" edge="1">
          <mxGeometry x="-0.6" y="-27" width="160" relative="1" as="geometry">
            <mxPoint x="537" y="191" as="sourcePoint" />
            <mxPoint x="517" y="191" as="targetPoint" />
            <mxPoint as="offset" />
          </mxGeometry>
        </mxCell>
        <mxCell id="UnH_teKRYjCoHpWosyrO-24" value="자료목록" style="ellipse;whiteSpace=wrap;html=1;" parent="UnH_teKRYjCoHpWosyrO-82" vertex="1">
          <mxGeometry x="497" y="186" width="80" height="30" as="geometry" />
        </mxCell>
        <mxCell id="UnH_teKRYjCoHpWosyrO-40" value="파일선택" style="ellipse;whiteSpace=wrap;html=1;" parent="UnH_teKRYjCoHpWosyrO-82" vertex="1">
          <mxGeometry x="757" y="117" width="70" height="30" as="geometry" />
        </mxCell>
        <mxCell id="UnH_teKRYjCoHpWosyrO-25" value="&amp;lt;&amp;lt;extend&amp;gt;&amp;gt;" style="html=1;verticalAlign=bottom;labelBackgroundColor=none;endArrow=open;endFill=0;dashed=1;rounded=0;entryX=0.5;entryY=1;entryDx=0;entryDy=0;exitX=0.5;exitY=0;exitDx=0;exitDy=0;" parent="UnH_teKRYjCoHpWosyrO-82" source="UnH_teKRYjCoHpWosyrO-26" edge="1">
          <mxGeometry x="-0.6025" y="21" width="160" relative="1" as="geometry">
            <mxPoint x="537.5" y="269" as="sourcePoint" />
            <mxPoint x="537.5" y="218" as="targetPoint" />
            <mxPoint as="offset" />
          </mxGeometry>
        </mxCell>
        <mxCell id="UnH_teKRYjCoHpWosyrO-26" value="다운로드" style="ellipse;whiteSpace=wrap;html=1;" parent="UnH_teKRYjCoHpWosyrO-82" vertex="1">
          <mxGeometry x="431" y="268" width="66" height="30" as="geometry" />
        </mxCell>
        <mxCell id="UnH_teKRYjCoHpWosyrO-27" value="&amp;lt;&amp;lt;include&amp;gt;&amp;gt;" style="html=1;verticalAlign=bottom;labelBackgroundColor=none;endArrow=open;endFill=0;dashed=1;rounded=0;" parent="UnH_teKRYjCoHpWosyrO-82" edge="1">
          <mxGeometry x="0.3333" y="13" width="160" relative="1" as="geometry">
            <mxPoint x="387" y="141" as="sourcePoint" />
            <mxPoint x="387" y="201" as="targetPoint" />
            <mxPoint as="offset" />
          </mxGeometry>
        </mxCell>
        <mxCell id="UnH_teKRYjCoHpWosyrO-28" value="담당자정보" style="ellipse;whiteSpace=wrap;html=1;" parent="UnH_teKRYjCoHpWosyrO-82" vertex="1">
          <mxGeometry x="341" y="201" width="90" height="30" as="geometry" />
        </mxCell>
        <mxCell id="UnH_teKRYjCoHpWosyrO-29" value="&amp;lt;&amp;lt;extend&amp;gt;&amp;gt;" style="html=1;verticalAlign=bottom;labelBackgroundColor=none;endArrow=open;endFill=0;dashed=1;rounded=0;entryX=0;entryY=1;entryDx=0;entryDy=0;exitX=0.5;exitY=0;exitDx=0;exitDy=0;" parent="UnH_teKRYjCoHpWosyrO-82" source="UnH_teKRYjCoHpWosyrO-32" target="UnH_teKRYjCoHpWosyrO-20" edge="1">
          <mxGeometry width="160" relative="1" as="geometry">
            <mxPoint x="657" y="131" as="sourcePoint" />
            <mxPoint x="707" y="81" as="targetPoint" />
          </mxGeometry>
        </mxCell>
        <mxCell id="UnH_teKRYjCoHpWosyrO-30" value="저장" style="ellipse;whiteSpace=wrap;html=1;" parent="UnH_teKRYjCoHpWosyrO-82" vertex="1">
          <mxGeometry x="673" y="121" width="70" height="30" as="geometry" />
        </mxCell>
        <mxCell id="UnH_teKRYjCoHpWosyrO-31" value="&amp;lt;&amp;lt;extend&amp;gt;&amp;gt;" style="html=1;verticalAlign=bottom;labelBackgroundColor=none;endArrow=open;endFill=0;dashed=1;rounded=0;entryX=0;entryY=1;entryDx=0;entryDy=0;exitX=0.5;exitY=0;exitDx=0;exitDy=0;" parent="UnH_teKRYjCoHpWosyrO-82" source="UnH_teKRYjCoHpWosyrO-30" edge="1">
          <mxGeometry width="160" relative="1" as="geometry">
            <mxPoint x="707" y="121" as="sourcePoint" />
            <mxPoint x="708.5" y="81" as="targetPoint" />
          </mxGeometry>
        </mxCell>
        <mxCell id="UnH_teKRYjCoHpWosyrO-32" value="삭제" style="ellipse;whiteSpace=wrap;html=1;" parent="UnH_teKRYjCoHpWosyrO-82" vertex="1">
          <mxGeometry x="597" y="110" width="70" height="30" as="geometry" />
        </mxCell>
        <mxCell id="UnH_teKRYjCoHpWosyrO-34" value="&amp;lt;&amp;lt;extend&amp;gt;&amp;gt;" style="html=1;verticalAlign=bottom;labelBackgroundColor=none;endArrow=open;endFill=0;dashed=1;rounded=0;entryX=0.5;entryY=1;entryDx=0;entryDy=0;" parent="UnH_teKRYjCoHpWosyrO-82" target="UnH_teKRYjCoHpWosyrO-24" edge="1">
          <mxGeometry x="-0.031" y="10" width="160" relative="1" as="geometry">
            <mxPoint x="607" y="268" as="sourcePoint" />
            <mxPoint x="712" y="268" as="targetPoint" />
            <mxPoint as="offset" />
          </mxGeometry>
        </mxCell>
        <mxCell id="UnH_teKRYjCoHpWosyrO-35" value="확인" style="ellipse;whiteSpace=wrap;html=1;" parent="UnH_teKRYjCoHpWosyrO-82" vertex="1">
          <mxGeometry x="577" y="268" width="66" height="30" as="geometry" />
        </mxCell>
        <mxCell id="UnH_teKRYjCoHpWosyrO-36" value="수정" style="ellipse;whiteSpace=wrap;html=1;" parent="UnH_teKRYjCoHpWosyrO-82" vertex="1">
          <mxGeometry x="505" y="268" width="66" height="30" as="geometry" />
        </mxCell>
        <mxCell id="UnH_teKRYjCoHpWosyrO-37" value="&amp;lt;&amp;lt;extend&amp;gt;&amp;gt;" style="html=1;verticalAlign=bottom;labelBackgroundColor=none;endArrow=open;endFill=0;dashed=1;rounded=0;" parent="UnH_teKRYjCoHpWosyrO-82" source="UnH_teKRYjCoHpWosyrO-36" edge="1">
          <mxGeometry x="-0.6811" y="31" width="160" relative="1" as="geometry">
            <mxPoint x="417" y="381" as="sourcePoint" />
            <mxPoint x="537" y="221" as="targetPoint" />
            <mxPoint y="-1" as="offset" />
          </mxGeometry>
        </mxCell>
        <mxCell id="UnH_teKRYjCoHpWosyrO-41" value="&amp;lt;&amp;lt;extend&amp;gt;&amp;gt;" style="html=1;verticalAlign=bottom;labelBackgroundColor=none;endArrow=open;endFill=0;dashed=1;rounded=0;exitX=0.257;exitY=0.033;exitDx=0;exitDy=0;exitPerimeter=0;" parent="UnH_teKRYjCoHpWosyrO-82" source="UnH_teKRYjCoHpWosyrO-40" edge="1">
          <mxGeometry width="160" relative="1" as="geometry">
            <mxPoint x="483" y="5.5" as="sourcePoint" />
            <mxPoint x="749" y="66" as="targetPoint" />
          </mxGeometry>
        </mxCell>
        <mxCell id="UnH_teKRYjCoHpWosyrO-2" value="회원가입" style="ellipse;whiteSpace=wrap;html=1;" parent="UnH_teKRYjCoHpWosyrO-82" vertex="1">
          <mxGeometry x="40" y="371" width="90" height="30" as="geometry" />
        </mxCell>
        <mxCell id="0yb1WNiDXI75J15WsoSP-3" value="&amp;lt;&amp;lt;include&amp;gt;&amp;gt;" style="html=1;verticalAlign=bottom;labelBackgroundColor=none;endArrow=open;endFill=0;dashed=1;rounded=0;entryX=0;entryY=0.5;entryDx=0;entryDy=0;" parent="UnH_teKRYjCoHpWosyrO-82" target="0yb1WNiDXI75J15WsoSP-4" edge="1">
          <mxGeometry width="160" relative="1" as="geometry">
            <mxPoint x="129" y="385.5" as="sourcePoint" />
            <mxPoint x="199" y="386" as="targetPoint" />
          </mxGeometry>
        </mxCell>
        <mxCell id="0yb1WNiDXI75J15WsoSP-4" value="메인메뉴(홈)" style="ellipse;whiteSpace=wrap;html=1;" parent="UnH_teKRYjCoHpWosyrO-82" vertex="1">
          <mxGeometry x="191" y="371" width="90" height="30" as="geometry" />
        </mxCell>
        <mxCell id="0yb1WNiDXI75J15WsoSP-8" value="의뢰내역" style="ellipse;whiteSpace=wrap;html=1;" parent="UnH_teKRYjCoHpWosyrO-82" vertex="1">
          <mxGeometry x="337" y="371" width="67" height="30" as="geometry" />
        </mxCell>
        <mxCell id="0yb1WNiDXI75J15WsoSP-12" value="주요정보" style="ellipse;whiteSpace=wrap;html=1;" parent="UnH_teKRYjCoHpWosyrO-82" vertex="1">
          <mxGeometry x="570" y="331" width="62" height="30" as="geometry" />
        </mxCell>
        <mxCell id="0yb1WNiDXI75J15WsoSP-13" value="담당자정보" style="ellipse;whiteSpace=wrap;html=1;" parent="UnH_teKRYjCoHpWosyrO-82" vertex="1">
          <mxGeometry x="570" y="391" width="72" height="30" as="geometry" />
        </mxCell>
        <mxCell id="0yb1WNiDXI75J15WsoSP-15" value="&amp;lt;&amp;lt;include&amp;gt;&amp;gt;" style="html=1;verticalAlign=bottom;labelBackgroundColor=none;endArrow=open;endFill=0;dashed=1;rounded=0;entryX=0;entryY=0.5;entryDx=0;entryDy=0;exitX=1;exitY=0.5;exitDx=0;exitDy=0;exitPerimeter=0;" parent="UnH_teKRYjCoHpWosyrO-82" source="0yb1WNiDXI75J15WsoSP-4" target="0yb1WNiDXI75J15WsoSP-8" edge="1">
          <mxGeometry width="160" relative="1" as="geometry">
            <mxPoint x="289" y="385.5" as="sourcePoint" />
            <mxPoint x="449" y="385.5" as="targetPoint" />
          </mxGeometry>
        </mxCell>
        <mxCell id="0yb1WNiDXI75J15WsoSP-16" value="&amp;lt;&amp;lt;extend&amp;gt;&amp;gt;" style="html=1;verticalAlign=bottom;labelBackgroundColor=none;endArrow=open;endFill=0;dashed=1;rounded=0;entryX=1;entryY=0.5;entryDx=0;entryDy=0;" parent="UnH_teKRYjCoHpWosyrO-82" target="0yb1WNiDXI75J15WsoSP-20" edge="1">
          <mxGeometry width="160" relative="1" as="geometry">
            <mxPoint x="570" y="346.5" as="sourcePoint" />
            <mxPoint x="530" y="386" as="targetPoint" />
          </mxGeometry>
        </mxCell>
        <mxCell id="0yb1WNiDXI75J15WsoSP-17" value="&amp;lt;&amp;lt;extend&amp;gt;&amp;gt;" style="html=1;verticalAlign=bottom;labelBackgroundColor=none;endArrow=open;endFill=0;dashed=1;rounded=0;entryX=1;entryY=0.5;entryDx=0;entryDy=0;" parent="UnH_teKRYjCoHpWosyrO-82" target="0yb1WNiDXI75J15WsoSP-20" edge="1">
          <mxGeometry x="-0.3645" y="21" width="160" relative="1" as="geometry">
            <mxPoint x="570" y="405.5" as="sourcePoint" />
            <mxPoint x="530" y="391" as="targetPoint" />
            <mxPoint y="1" as="offset" />
          </mxGeometry>
        </mxCell>
        <mxCell id="0yb1WNiDXI75J15WsoSP-20" value="내역조회" style="ellipse;whiteSpace=wrap;html=1;" parent="UnH_teKRYjCoHpWosyrO-82" vertex="1">
          <mxGeometry x="455" y="371" width="67" height="30" as="geometry" />
        </mxCell>
        <mxCell id="0yb1WNiDXI75J15WsoSP-21" value="&amp;lt;&amp;lt;include&amp;gt;&amp;gt;" style="html=1;verticalAlign=bottom;labelBackgroundColor=none;endArrow=open;endFill=0;dashed=1;rounded=0;entryX=0;entryY=0.5;entryDx=0;entryDy=0;exitX=1;exitY=0.5;exitDx=0;exitDy=0;" parent="UnH_teKRYjCoHpWosyrO-82" source="0yb1WNiDXI75J15WsoSP-8" target="0yb1WNiDXI75J15WsoSP-20" edge="1">
          <mxGeometry width="160" relative="1" as="geometry">
            <mxPoint x="421" y="385.5" as="sourcePoint" />
            <mxPoint x="581" y="385.5" as="targetPoint" />
          </mxGeometry>
        </mxCell>
        <mxCell id="0yb1WNiDXI75J15WsoSP-26" value="문서조회" style="ellipse;whiteSpace=wrap;html=1;" parent="UnH_teKRYjCoHpWosyrO-82" vertex="1">
          <mxGeometry x="684" y="331" width="58" height="30" as="geometry" />
        </mxCell>
        <mxCell id="0yb1WNiDXI75J15WsoSP-27" value="다운로드" style="ellipse;whiteSpace=wrap;html=1;" parent="UnH_teKRYjCoHpWosyrO-82" vertex="1">
          <mxGeometry x="786" y="331" width="66" height="30" as="geometry" />
        </mxCell>
        <mxCell id="0yb1WNiDXI75J15WsoSP-29" value="&amp;lt;&amp;lt;extend&amp;gt;&amp;gt;" style="html=1;verticalAlign=bottom;labelBackgroundColor=none;endArrow=open;endFill=0;dashed=1;rounded=0;" parent="UnH_teKRYjCoHpWosyrO-82" edge="1">
          <mxGeometry width="160" relative="1" as="geometry">
            <mxPoint x="681" y="346" as="sourcePoint" />
            <mxPoint x="632" y="345.5" as="targetPoint" />
          </mxGeometry>
        </mxCell>
        <mxCell id="0yb1WNiDXI75J15WsoSP-31" value="&amp;lt;&amp;lt;extend&amp;gt;&amp;gt;" style="html=1;verticalAlign=bottom;labelBackgroundColor=none;endArrow=open;endFill=0;dashed=1;rounded=0;exitX=0;exitY=0.5;exitDx=0;exitDy=0;" parent="UnH_teKRYjCoHpWosyrO-82" source="0yb1WNiDXI75J15WsoSP-27" edge="1">
          <mxGeometry width="160" relative="1" as="geometry">
            <mxPoint x="902" y="345.5" as="sourcePoint" />
            <mxPoint x="742" y="345.5" as="targetPoint" />
          </mxGeometry>
        </mxCell>
        <mxCell id="0yb1WNiDXI75J15WsoSP-18" value="사번선택" style="ellipse;whiteSpace=wrap;html=1;" parent="UnH_teKRYjCoHpWosyrO-82" vertex="1">
          <mxGeometry x="685" y="392" width="62" height="30" as="geometry" />
        </mxCell>
        <mxCell id="0yb1WNiDXI75J15WsoSP-22" value="&amp;lt;&amp;lt;extend&amp;gt;&amp;gt;" style="html=1;verticalAlign=bottom;labelBackgroundColor=none;endArrow=open;endFill=0;dashed=1;rounded=0;exitX=0;exitY=0.5;exitDx=0;exitDy=0;" parent="UnH_teKRYjCoHpWosyrO-82" source="0yb1WNiDXI75J15WsoSP-18" edge="1">
          <mxGeometry width="160" relative="1" as="geometry">
            <mxPoint x="805" y="406.5" as="sourcePoint" />
            <mxPoint x="645" y="406.5" as="targetPoint" />
          </mxGeometry>
        </mxCell>
        <mxCell id="0yb1WNiDXI75J15WsoSP-28" value="저장" style="ellipse;whiteSpace=wrap;html=1;" parent="UnH_teKRYjCoHpWosyrO-82" vertex="1">
          <mxGeometry x="789" y="392" width="65" height="30" as="geometry" />
        </mxCell>
        <mxCell id="0yb1WNiDXI75J15WsoSP-30" value="&amp;lt;&amp;lt;extend&amp;gt;&amp;gt;" style="html=1;verticalAlign=bottom;labelBackgroundColor=none;endArrow=open;endFill=0;dashed=1;rounded=0;exitX=0;exitY=0.5;exitDx=0;exitDy=0;" parent="UnH_teKRYjCoHpWosyrO-82" source="0yb1WNiDXI75J15WsoSP-28" edge="1">
          <mxGeometry width="160" relative="1" as="geometry">
            <mxPoint x="907" y="406.5" as="sourcePoint" />
            <mxPoint x="747" y="406.5" as="targetPoint" />
          </mxGeometry>
        </mxCell>
        <mxCell id="mCSv1eMPrU4gCBN5cKcx-4" value="수정요청내역" style="ellipse;whiteSpace=wrap;html=1;" parent="UnH_teKRYjCoHpWosyrO-82" vertex="1">
          <mxGeometry x="247" y="201" width="90" height="30" as="geometry" />
        </mxCell>
        <mxCell id="mCSv1eMPrU4gCBN5cKcx-3" value="&amp;lt;&amp;lt;include&amp;gt;&amp;gt;" style="html=1;verticalAlign=bottom;labelBackgroundColor=none;endArrow=open;endFill=0;dashed=1;rounded=0;exitX=0.246;exitY=0.956;exitDx=0;exitDy=0;exitPerimeter=0;entryX=0.774;entryY=0.178;entryDx=0;entryDy=0;entryPerimeter=0;" parent="UnH_teKRYjCoHpWosyrO-82" source="UnH_teKRYjCoHpWosyrO-15" target="mCSv1eMPrU4gCBN5cKcx-4" edge="1">
          <mxGeometry x="0.3333" y="13" width="160" relative="1" as="geometry">
            <mxPoint x="320" y="141" as="sourcePoint" />
            <mxPoint x="320" y="201" as="targetPoint" />
            <mxPoint as="offset" />
          </mxGeometry>
        </mxCell>
        <mxCell id="UnH_teKRYjCoHpWosyrO-42" value="DB" style="shape=cylinder3;whiteSpace=wrap;html=1;boundedLbl=1;backgroundOutline=1;size=15;" parent="1" vertex="1">
          <mxGeometry x="980" y="443" width="96" height="80" as="geometry" />
        </mxCell>
        <mxCell id="UnH_teKRYjCoHpWosyrO-89" value="사용자" style="shape=umlActor;verticalLabelPosition=bottom;verticalAlign=top;html=1;outlineConnect=0;" parent="1" vertex="1">
          <mxGeometry x="31" y="509" width="30" height="60" as="geometry" />
        </mxCell>
        <mxCell id="UnH_teKRYjCoHpWosyrO-6" value="" style="endArrow=none;html=1;rounded=0;entryX=0;entryY=0.5;entryDx=0;entryDy=0;" parent="1" target="UnH_teKRYjCoHpWosyrO-3" edge="1">
          <mxGeometry width="50" height="50" relative="1" as="geometry">
            <mxPoint x="61" y="430" as="sourcePoint" />
            <mxPoint x="101" y="470" as="targetPoint" />
          </mxGeometry>
        </mxCell>
        <mxCell id="mCSv1eMPrU4gCBN5cKcx-6" value="담당자" style="shape=umlActor;verticalLabelPosition=bottom;verticalAlign=top;html=1;outlineConnect=0;" parent="1" vertex="1">
          <mxGeometry x="61" y="1135" width="30" height="60" as="geometry" />
        </mxCell>
        <mxCell id="mCSv1eMPrU4gCBN5cKcx-8" value="세무매니저 시스템" style="swimlane;whiteSpace=wrap;html=1;fillColor=#fff2cc;strokeColor=#FFD966;strokeWidth=2;" parent="1" vertex="1">
          <mxGeometry x="120" y="970" width="869" height="490" as="geometry" />
        </mxCell>
        <mxCell id="mCSv1eMPrU4gCBN5cKcx-11" value="" style="endArrow=none;html=1;rounded=0;entryX=0;entryY=0.5;entryDx=0;entryDy=0;" parent="mCSv1eMPrU4gCBN5cKcx-8" target="mCSv1eMPrU4gCBN5cKcx-12" edge="1">
          <mxGeometry width="50" height="50" relative="1" as="geometry">
            <mxPoint x="-31" y="270" as="sourcePoint" />
            <mxPoint x="35" y="250" as="targetPoint" />
          </mxGeometry>
        </mxCell>
        <mxCell id="mCSv1eMPrU4gCBN5cKcx-12" value="사용자/담당자&lt;br&gt;구분 로그인" style="ellipse;whiteSpace=wrap;html=1;" parent="mCSv1eMPrU4gCBN5cKcx-8" vertex="1">
          <mxGeometry x="20" y="195.5" width="100" height="41" as="geometry" />
        </mxCell>
        <mxCell id="mCSv1eMPrU4gCBN5cKcx-68" value="" style="endArrow=none;html=1;rounded=0;exitX=1;exitY=0.5;exitDx=0;exitDy=0;entryX=0;entryY=0.5;entryDx=0;entryDy=0;" parent="mCSv1eMPrU4gCBN5cKcx-8" source="mCSv1eMPrU4gCBN5cKcx-12" target="mCSv1eMPrU4gCBN5cKcx-69" edge="1">
          <mxGeometry width="50" height="50" relative="1" as="geometry">
            <mxPoint x="120" y="214" as="sourcePoint" />
            <mxPoint x="140" y="90" as="targetPoint" />
          </mxGeometry>
        </mxCell>
        <mxCell id="mCSv1eMPrU4gCBN5cKcx-69" value="담당자 로그인" style="ellipse;whiteSpace=wrap;html=1;" parent="mCSv1eMPrU4gCBN5cKcx-8" vertex="1">
          <mxGeometry x="142" y="101" width="90" height="30" as="geometry" />
        </mxCell>
        <mxCell id="mCSv1eMPrU4gCBN5cKcx-67" value="사용자 로그인" style="ellipse;whiteSpace=wrap;html=1;" parent="mCSv1eMPrU4gCBN5cKcx-8" vertex="1">
          <mxGeometry x="142" y="254" width="90" height="30" as="geometry" />
        </mxCell>
        <mxCell id="mCSv1eMPrU4gCBN5cKcx-66" value="" style="endArrow=none;html=1;rounded=0;entryX=1;entryY=0.5;entryDx=0;entryDy=0;exitX=0;exitY=0.333;exitDx=0;exitDy=0;exitPerimeter=0;" parent="mCSv1eMPrU4gCBN5cKcx-8" source="mCSv1eMPrU4gCBN5cKcx-67" target="mCSv1eMPrU4gCBN5cKcx-12" edge="1">
          <mxGeometry width="50" height="50" relative="1" as="geometry">
            <mxPoint x="140" y="274" as="sourcePoint" />
            <mxPoint x="119.99999999999886" y="240" as="targetPoint" />
          </mxGeometry>
        </mxCell>
        <mxCell id="mCSv1eMPrU4gCBN5cKcx-70" value="회원가입" style="ellipse;whiteSpace=wrap;html=1;" parent="mCSv1eMPrU4gCBN5cKcx-8" vertex="1">
          <mxGeometry x="142" y="344" width="90" height="30" as="geometry" />
        </mxCell>
        <mxCell id="mCSv1eMPrU4gCBN5cKcx-71" value="메인메뉴(홈)" style="ellipse;whiteSpace=wrap;html=1;" parent="mCSv1eMPrU4gCBN5cKcx-8" vertex="1">
          <mxGeometry x="270" y="254" width="90" height="30" as="geometry" />
        </mxCell>
        <mxCell id="mCSv1eMPrU4gCBN5cKcx-72" value="&amp;lt;&amp;lt;include&amp;gt;&amp;gt;" style="html=1;verticalAlign=bottom;labelBackgroundColor=none;endArrow=open;endFill=0;dashed=1;rounded=0;entryX=0;entryY=0.5;entryDx=0;entryDy=0;" parent="mCSv1eMPrU4gCBN5cKcx-8" source="mCSv1eMPrU4gCBN5cKcx-67" target="mCSv1eMPrU4gCBN5cKcx-71" edge="1">
          <mxGeometry width="160" relative="1" as="geometry">
            <mxPoint x="232" y="268.5799999999999" as="sourcePoint" />
            <mxPoint x="294" y="269.0799999999999" as="targetPoint" />
          </mxGeometry>
        </mxCell>
        <mxCell id="mCSv1eMPrU4gCBN5cKcx-74" value="&amp;lt;&amp;lt;include&amp;gt;&amp;gt;" style="html=1;verticalAlign=bottom;labelBackgroundColor=none;endArrow=open;endFill=0;dashed=1;rounded=0;entryX=0.5;entryY=0;entryDx=0;entryDy=0;exitX=0.5;exitY=1;exitDx=0;exitDy=0;" parent="mCSv1eMPrU4gCBN5cKcx-8" source="mCSv1eMPrU4gCBN5cKcx-67" target="mCSv1eMPrU4gCBN5cKcx-70" edge="1">
          <mxGeometry width="160" relative="1" as="geometry">
            <mxPoint x="170" y="314" as="sourcePoint" />
            <mxPoint x="232" y="314.5" as="targetPoint" />
          </mxGeometry>
        </mxCell>
        <mxCell id="mCSv1eMPrU4gCBN5cKcx-75" value="신고의뢰" style="ellipse;whiteSpace=wrap;html=1;" parent="mCSv1eMPrU4gCBN5cKcx-8" vertex="1">
          <mxGeometry x="383.5" y="230.5" width="68" height="30" as="geometry" />
        </mxCell>
        <mxCell id="mCSv1eMPrU4gCBN5cKcx-76" value="&amp;lt;&amp;lt;extend&amp;gt;&amp;gt;" style="html=1;verticalAlign=bottom;labelBackgroundColor=none;endArrow=open;endFill=0;dashed=1;rounded=0;entryX=1;entryY=0.5;entryDx=0;entryDy=0;exitX=0;exitY=0.5;exitDx=0;exitDy=0;" parent="mCSv1eMPrU4gCBN5cKcx-8" source="mCSv1eMPrU4gCBN5cKcx-75" edge="1">
          <mxGeometry x="0.442" y="-17" width="160" relative="1" as="geometry">
            <mxPoint x="430" y="223.5" as="sourcePoint" />
            <mxPoint x="360" y="268" as="targetPoint" />
            <mxPoint as="offset" />
          </mxGeometry>
        </mxCell>
        <mxCell id="mCSv1eMPrU4gCBN5cKcx-77" value="내역조회" style="ellipse;whiteSpace=wrap;html=1;" parent="mCSv1eMPrU4gCBN5cKcx-8" vertex="1">
          <mxGeometry x="375" y="350" width="65" height="30" as="geometry" />
        </mxCell>
        <mxCell id="mCSv1eMPrU4gCBN5cKcx-78" value="&amp;lt;&amp;lt;extend&amp;gt;&amp;gt;" style="html=1;verticalAlign=bottom;labelBackgroundColor=none;endArrow=open;endFill=0;dashed=1;rounded=0;exitX=0;exitY=0.5;exitDx=0;exitDy=0;" parent="mCSv1eMPrU4gCBN5cKcx-8" source="mCSv1eMPrU4gCBN5cKcx-77" edge="1">
          <mxGeometry x="-0.3333" y="34" width="160" relative="1" as="geometry">
            <mxPoint x="440" y="233.5" as="sourcePoint" />
            <mxPoint x="360" y="269" as="targetPoint" />
            <mxPoint as="offset" />
          </mxGeometry>
        </mxCell>
        <mxCell id="mCSv1eMPrU4gCBN5cKcx-79" value="&amp;lt;&amp;lt;include&amp;gt;&amp;gt;" style="html=1;verticalAlign=bottom;labelBackgroundColor=none;endArrow=open;endFill=0;dashed=1;rounded=0;exitX=1;exitY=0.5;exitDx=0;exitDy=0;" parent="mCSv1eMPrU4gCBN5cKcx-8" source="mCSv1eMPrU4gCBN5cKcx-75" target="mCSv1eMPrU4gCBN5cKcx-80" edge="1">
          <mxGeometry width="160" relative="1" as="geometry">
            <mxPoint x="493" y="223.66" as="sourcePoint" />
            <mxPoint x="563" y="224.16" as="targetPoint" />
          </mxGeometry>
        </mxCell>
        <mxCell id="mCSv1eMPrU4gCBN5cKcx-80" value="주요정보" style="ellipse;whiteSpace=wrap;html=1;" parent="mCSv1eMPrU4gCBN5cKcx-8" vertex="1">
          <mxGeometry x="502.5" y="230.5" width="66" height="30" as="geometry" />
        </mxCell>
        <mxCell id="mCSv1eMPrU4gCBN5cKcx-81" value="&amp;lt;&amp;lt;include&amp;gt;&amp;gt;" style="html=1;verticalAlign=bottom;labelBackgroundColor=none;endArrow=open;endFill=0;dashed=1;rounded=0;exitX=1;exitY=0.5;exitDx=0;exitDy=0;entryX=0;entryY=0.5;entryDx=0;entryDy=0;" parent="mCSv1eMPrU4gCBN5cKcx-8" source="mCSv1eMPrU4gCBN5cKcx-80" target="mCSv1eMPrU4gCBN5cKcx-83" edge="1">
          <mxGeometry width="160" relative="1" as="geometry">
            <mxPoint x="590" y="223.66" as="sourcePoint" />
            <mxPoint x="630" y="224" as="targetPoint" />
          </mxGeometry>
        </mxCell>
        <mxCell id="mCSv1eMPrU4gCBN5cKcx-83" value="자료제출" style="ellipse;whiteSpace=wrap;html=1;" parent="mCSv1eMPrU4gCBN5cKcx-8" vertex="1">
          <mxGeometry x="623.5" y="230.5" width="66" height="30" as="geometry" />
        </mxCell>
        <mxCell id="mCSv1eMPrU4gCBN5cKcx-84" value="수정요청내역" style="ellipse;whiteSpace=wrap;html=1;" parent="mCSv1eMPrU4gCBN5cKcx-8" vertex="1">
          <mxGeometry x="493" y="290" width="87" height="30" as="geometry" />
        </mxCell>
        <mxCell id="mCSv1eMPrU4gCBN5cKcx-85" value="주요정보" style="ellipse;whiteSpace=wrap;html=1;" parent="mCSv1eMPrU4gCBN5cKcx-8" vertex="1">
          <mxGeometry x="493" y="350" width="68" height="30" as="geometry" />
        </mxCell>
        <mxCell id="mCSv1eMPrU4gCBN5cKcx-86" value="담당자정보" style="ellipse;whiteSpace=wrap;html=1;" parent="mCSv1eMPrU4gCBN5cKcx-8" vertex="1">
          <mxGeometry x="493" y="410" width="87" height="30" as="geometry" />
        </mxCell>
        <mxCell id="mCSv1eMPrU4gCBN5cKcx-87" value="&amp;lt;&amp;lt;include&amp;gt;&amp;gt;" style="html=1;verticalAlign=bottom;labelBackgroundColor=none;endArrow=open;endFill=0;dashed=1;rounded=0;exitX=1;exitY=0.5;exitDx=0;exitDy=0;entryX=0;entryY=0.5;entryDx=0;entryDy=0;" parent="mCSv1eMPrU4gCBN5cKcx-8" source="mCSv1eMPrU4gCBN5cKcx-77" target="mCSv1eMPrU4gCBN5cKcx-84" edge="1">
          <mxGeometry width="160" relative="1" as="geometry">
            <mxPoint x="440" y="320" as="sourcePoint" />
            <mxPoint x="491" y="320" as="targetPoint" />
          </mxGeometry>
        </mxCell>
        <mxCell id="mCSv1eMPrU4gCBN5cKcx-88" value="&amp;lt;&amp;lt;include&amp;gt;&amp;gt;" style="html=1;verticalAlign=bottom;labelBackgroundColor=none;endArrow=open;endFill=0;dashed=1;rounded=0;exitX=1;exitY=0.5;exitDx=0;exitDy=0;" parent="mCSv1eMPrU4gCBN5cKcx-8" edge="1">
          <mxGeometry width="160" relative="1" as="geometry">
            <mxPoint x="442" y="364.6600000000001" as="sourcePoint" />
            <mxPoint x="493" y="364.6600000000001" as="targetPoint" />
          </mxGeometry>
        </mxCell>
        <mxCell id="mCSv1eMPrU4gCBN5cKcx-89" value="&amp;lt;&amp;lt;include&amp;gt;&amp;gt;" style="html=1;verticalAlign=bottom;labelBackgroundColor=none;endArrow=open;endFill=0;dashed=1;rounded=0;exitX=1;exitY=0.5;exitDx=0;exitDy=0;entryX=0;entryY=0.5;entryDx=0;entryDy=0;" parent="mCSv1eMPrU4gCBN5cKcx-8" source="mCSv1eMPrU4gCBN5cKcx-77" target="mCSv1eMPrU4gCBN5cKcx-86" edge="1">
          <mxGeometry width="160" relative="1" as="geometry">
            <mxPoint x="440" y="404" as="sourcePoint" />
            <mxPoint x="491" y="404" as="targetPoint" />
          </mxGeometry>
        </mxCell>
        <mxCell id="mCSv1eMPrU4gCBN5cKcx-92" value="저장" style="ellipse;whiteSpace=wrap;html=1;" parent="mCSv1eMPrU4gCBN5cKcx-8" vertex="1">
          <mxGeometry x="610" y="410" width="40" height="24" as="geometry" />
        </mxCell>
        <mxCell id="mCSv1eMPrU4gCBN5cKcx-94" value="수정" style="ellipse;whiteSpace=wrap;html=1;" parent="mCSv1eMPrU4gCBN5cKcx-8" vertex="1">
          <mxGeometry x="610" y="353" width="40" height="24" as="geometry" />
        </mxCell>
        <mxCell id="mCSv1eMPrU4gCBN5cKcx-96" value="&amp;lt;&amp;lt;extend&amp;gt;&amp;gt;" style="html=1;verticalAlign=bottom;labelBackgroundColor=none;endArrow=open;endFill=0;dashed=1;rounded=0;" parent="mCSv1eMPrU4gCBN5cKcx-8" edge="1">
          <mxGeometry x="-0.1833" y="-1" width="160" relative="1" as="geometry">
            <mxPoint x="610" y="365.1600000000001" as="sourcePoint" />
            <mxPoint x="561" y="364.6600000000001" as="targetPoint" />
            <mxPoint as="offset" />
          </mxGeometry>
        </mxCell>
        <mxCell id="mCSv1eMPrU4gCBN5cKcx-97" value="&amp;lt;&amp;lt;include&amp;gt;&amp;gt;" style="html=1;verticalAlign=bottom;labelBackgroundColor=none;endArrow=open;endFill=0;dashed=1;rounded=0;exitX=0.5;exitY=1;exitDx=0;exitDy=0;entryX=0.5;entryY=0;entryDx=0;entryDy=0;" parent="mCSv1eMPrU4gCBN5cKcx-8" source="mCSv1eMPrU4gCBN5cKcx-94" target="mCSv1eMPrU4gCBN5cKcx-92" edge="1">
          <mxGeometry x="0.6364" y="-20" width="160" relative="1" as="geometry">
            <mxPoint x="640" y="394" as="sourcePoint" />
            <mxPoint x="691" y="394" as="targetPoint" />
            <mxPoint as="offset" />
          </mxGeometry>
        </mxCell>
        <mxCell id="mCSv1eMPrU4gCBN5cKcx-93" value="다음" style="ellipse;whiteSpace=wrap;html=1;" parent="mCSv1eMPrU4gCBN5cKcx-8" vertex="1">
          <mxGeometry x="609" y="304" width="40" height="24" as="geometry" />
        </mxCell>
        <mxCell id="mCSv1eMPrU4gCBN5cKcx-99" value="&amp;lt;&amp;lt;extend&amp;gt;&amp;gt;" style="html=1;verticalAlign=bottom;labelBackgroundColor=none;endArrow=open;endFill=0;dashed=1;rounded=0;exitX=0;exitY=0.5;exitDx=0;exitDy=0;entryX=1;entryY=0.5;entryDx=0;entryDy=0;" parent="mCSv1eMPrU4gCBN5cKcx-8" source="mCSv1eMPrU4gCBN5cKcx-93" target="mCSv1eMPrU4gCBN5cKcx-85" edge="1">
          <mxGeometry x="-0.1833" y="-1" width="160" relative="1" as="geometry">
            <mxPoint x="599" y="334.5" as="sourcePoint" />
            <mxPoint x="550" y="334" as="targetPoint" />
            <mxPoint as="offset" />
          </mxGeometry>
        </mxCell>
        <mxCell id="mCSv1eMPrU4gCBN5cKcx-100" value="제출자료" style="ellipse;whiteSpace=wrap;html=1;" parent="mCSv1eMPrU4gCBN5cKcx-8" vertex="1">
          <mxGeometry x="690" y="301" width="68" height="30" as="geometry" />
        </mxCell>
        <mxCell id="mCSv1eMPrU4gCBN5cKcx-101" value="삭제" style="ellipse;whiteSpace=wrap;html=1;" parent="mCSv1eMPrU4gCBN5cKcx-8" vertex="1">
          <mxGeometry x="802" y="304" width="40" height="24" as="geometry" />
        </mxCell>
        <mxCell id="mCSv1eMPrU4gCBN5cKcx-102" value="다운" style="ellipse;whiteSpace=wrap;html=1;" parent="mCSv1eMPrU4gCBN5cKcx-8" vertex="1">
          <mxGeometry x="802" y="260.5" width="40" height="24" as="geometry" />
        </mxCell>
        <mxCell id="mCSv1eMPrU4gCBN5cKcx-103" value="저장" style="ellipse;whiteSpace=wrap;html=1;" parent="mCSv1eMPrU4gCBN5cKcx-8" vertex="1">
          <mxGeometry x="802" y="361" width="40" height="24" as="geometry" />
        </mxCell>
        <mxCell id="mCSv1eMPrU4gCBN5cKcx-104" value="&amp;lt;&amp;lt;include&amp;gt;&amp;gt;" style="html=1;verticalAlign=bottom;labelBackgroundColor=none;endArrow=open;endFill=0;dashed=1;rounded=0;exitX=0.5;exitY=1;exitDx=0;exitDy=0;entryX=0.5;entryY=0;entryDx=0;entryDy=0;" parent="mCSv1eMPrU4gCBN5cKcx-8" source="mCSv1eMPrU4gCBN5cKcx-101" target="mCSv1eMPrU4gCBN5cKcx-103" edge="1">
          <mxGeometry x="0.6364" y="-20" width="160" relative="1" as="geometry">
            <mxPoint x="810" y="328" as="sourcePoint" />
            <mxPoint x="871" y="345" as="targetPoint" />
            <mxPoint as="offset" />
          </mxGeometry>
        </mxCell>
        <mxCell id="mCSv1eMPrU4gCBN5cKcx-105" value="&amp;lt;&amp;lt;include&amp;gt;&amp;gt;" style="html=1;verticalAlign=bottom;labelBackgroundColor=none;endArrow=open;endFill=0;dashed=1;rounded=0;exitX=1;exitY=0.5;exitDx=0;exitDy=0;entryX=0;entryY=0.5;entryDx=0;entryDy=0;" parent="mCSv1eMPrU4gCBN5cKcx-8" source="mCSv1eMPrU4gCBN5cKcx-93" target="mCSv1eMPrU4gCBN5cKcx-100" edge="1">
          <mxGeometry width="160" relative="1" as="geometry">
            <mxPoint x="656" y="315.6600000000001" as="sourcePoint" />
            <mxPoint x="707" y="315.6600000000001" as="targetPoint" />
          </mxGeometry>
        </mxCell>
        <mxCell id="mCSv1eMPrU4gCBN5cKcx-106" value="&amp;lt;&amp;lt;extend&amp;gt;&amp;gt;" style="html=1;verticalAlign=bottom;labelBackgroundColor=none;endArrow=open;endFill=0;dashed=1;rounded=0;exitX=0;exitY=0.5;exitDx=0;exitDy=0;entryX=1;entryY=0.5;entryDx=0;entryDy=0;" parent="mCSv1eMPrU4gCBN5cKcx-8" source="mCSv1eMPrU4gCBN5cKcx-101" target="mCSv1eMPrU4gCBN5cKcx-100" edge="1">
          <mxGeometry x="-0.1833" y="-1" width="160" relative="1" as="geometry">
            <mxPoint x="790" y="316.1600000000001" as="sourcePoint" />
            <mxPoint x="741" y="315.6600000000001" as="targetPoint" />
            <mxPoint as="offset" />
          </mxGeometry>
        </mxCell>
        <mxCell id="mCSv1eMPrU4gCBN5cKcx-107" value="&amp;lt;&amp;lt;extend&amp;gt;&amp;gt;" style="html=1;verticalAlign=bottom;labelBackgroundColor=none;endArrow=open;endFill=0;dashed=1;rounded=0;exitX=0;exitY=0.5;exitDx=0;exitDy=0;entryX=1;entryY=0.5;entryDx=0;entryDy=0;" parent="mCSv1eMPrU4gCBN5cKcx-8" target="mCSv1eMPrU4gCBN5cKcx-100" edge="1">
          <mxGeometry x="-0.1833" y="-1" width="160" relative="1" as="geometry">
            <mxPoint x="802" y="274" as="sourcePoint" />
            <mxPoint x="758" y="274" as="targetPoint" />
            <mxPoint as="offset" />
          </mxGeometry>
        </mxCell>
        <mxCell id="mCSv1eMPrU4gCBN5cKcx-108" value="&amp;lt;&amp;lt;extend&amp;gt;&amp;gt;" style="html=1;verticalAlign=bottom;labelBackgroundColor=none;endArrow=open;endFill=0;dashed=1;rounded=0;entryX=0.5;entryY=1;entryDx=0;entryDy=0;exitX=0.5;exitY=0;exitDx=0;exitDy=0;" parent="mCSv1eMPrU4gCBN5cKcx-8" target="mCSv1eMPrU4gCBN5cKcx-70" edge="1">
          <mxGeometry x="-0.1873" y="12" width="160" relative="1" as="geometry">
            <mxPoint x="115" y="424.0000000000002" as="sourcePoint" />
            <mxPoint x="179.5" y="380" as="targetPoint" />
            <mxPoint as="offset" />
          </mxGeometry>
        </mxCell>
        <mxCell id="mCSv1eMPrU4gCBN5cKcx-109" value="&amp;lt;&amp;lt;extend&amp;gt;&amp;gt;" style="html=1;verticalAlign=bottom;labelBackgroundColor=none;endArrow=open;endFill=0;dashed=1;rounded=0;entryX=0.5;entryY=1;entryDx=0;entryDy=0;exitX=0.5;exitY=0;exitDx=0;exitDy=0;" parent="mCSv1eMPrU4gCBN5cKcx-8" source="mCSv1eMPrU4gCBN5cKcx-111" target="mCSv1eMPrU4gCBN5cKcx-70" edge="1">
          <mxGeometry x="-0.4303" y="-19" width="160" relative="1" as="geometry">
            <mxPoint x="260" y="424" as="sourcePoint" />
            <mxPoint x="270" y="393" as="targetPoint" />
            <mxPoint as="offset" />
          </mxGeometry>
        </mxCell>
        <mxCell id="mCSv1eMPrU4gCBN5cKcx-110" value="아이디찾기" style="ellipse;whiteSpace=wrap;html=1;" parent="mCSv1eMPrU4gCBN5cKcx-8" vertex="1">
          <mxGeometry x="70" y="424" width="90" height="30" as="geometry" />
        </mxCell>
        <mxCell id="mCSv1eMPrU4gCBN5cKcx-111" value="비밀번호찾기" style="ellipse;whiteSpace=wrap;html=1;" parent="mCSv1eMPrU4gCBN5cKcx-8" vertex="1">
          <mxGeometry x="215" y="424" width="90" height="30" as="geometry" />
        </mxCell>
        <mxCell id="mCSv1eMPrU4gCBN5cKcx-112" value="의뢰내역목록" style="ellipse;whiteSpace=wrap;html=1;" parent="mCSv1eMPrU4gCBN5cKcx-8" vertex="1">
          <mxGeometry x="270" y="101" width="90" height="30" as="geometry" />
        </mxCell>
        <mxCell id="mCSv1eMPrU4gCBN5cKcx-113" value="&amp;lt;&amp;lt;include&amp;gt;&amp;gt;" style="html=1;verticalAlign=bottom;labelBackgroundColor=none;endArrow=open;endFill=0;dashed=1;rounded=0;entryX=0;entryY=0.5;entryDx=0;entryDy=0;" parent="mCSv1eMPrU4gCBN5cKcx-8" target="mCSv1eMPrU4gCBN5cKcx-112" edge="1">
          <mxGeometry width="160" relative="1" as="geometry">
            <mxPoint x="232" y="116" as="sourcePoint" />
            <mxPoint x="294" y="116.07999999999993" as="targetPoint" />
          </mxGeometry>
        </mxCell>
        <mxCell id="mCSv1eMPrU4gCBN5cKcx-114" value="리스트갱신" style="ellipse;whiteSpace=wrap;html=1;" parent="mCSv1eMPrU4gCBN5cKcx-8" vertex="1">
          <mxGeometry x="391" y="50" width="87" height="30" as="geometry" />
        </mxCell>
        <mxCell id="mCSv1eMPrU4gCBN5cKcx-133" value="" style="edgeStyle=orthogonalEdgeStyle;rounded=0;orthogonalLoop=1;jettySize=auto;html=1;" parent="mCSv1eMPrU4gCBN5cKcx-8" source="mCSv1eMPrU4gCBN5cKcx-115" target="mCSv1eMPrU4gCBN5cKcx-112" edge="1">
          <mxGeometry relative="1" as="geometry" />
        </mxCell>
        <mxCell id="mCSv1eMPrU4gCBN5cKcx-115" value="상세조회(정보)" style="ellipse;whiteSpace=wrap;html=1;" parent="mCSv1eMPrU4gCBN5cKcx-8" vertex="1">
          <mxGeometry x="390" y="100" width="87" height="30" as="geometry" />
        </mxCell>
        <mxCell id="mCSv1eMPrU4gCBN5cKcx-116" value="담당자" style="ellipse;whiteSpace=wrap;html=1;" parent="mCSv1eMPrU4gCBN5cKcx-8" vertex="1">
          <mxGeometry x="391" y="165.5" width="87" height="30" as="geometry" />
        </mxCell>
        <mxCell id="mCSv1eMPrU4gCBN5cKcx-117" value="상세조회(자료)" style="ellipse;whiteSpace=wrap;html=1;" parent="mCSv1eMPrU4gCBN5cKcx-8" vertex="1">
          <mxGeometry x="500" y="100" width="87" height="30" as="geometry" />
        </mxCell>
        <mxCell id="mCSv1eMPrU4gCBN5cKcx-118" value="배치필요" style="ellipse;whiteSpace=wrap;html=1;" parent="mCSv1eMPrU4gCBN5cKcx-8" vertex="1">
          <mxGeometry x="509.5" y="147" width="68" height="30" as="geometry" />
        </mxCell>
        <mxCell id="mCSv1eMPrU4gCBN5cKcx-119" value="담당자명" style="ellipse;whiteSpace=wrap;html=1;" parent="mCSv1eMPrU4gCBN5cKcx-8" vertex="1">
          <mxGeometry x="509.5" y="186" width="68" height="30" as="geometry" />
        </mxCell>
        <mxCell id="mCSv1eMPrU4gCBN5cKcx-120" value="사번선택" style="ellipse;whiteSpace=wrap;html=1;" parent="mCSv1eMPrU4gCBN5cKcx-8" vertex="1">
          <mxGeometry x="613" y="147" width="62" height="30" as="geometry" />
        </mxCell>
        <mxCell id="mCSv1eMPrU4gCBN5cKcx-121" value="담당자저장" style="ellipse;whiteSpace=wrap;html=1;" parent="mCSv1eMPrU4gCBN5cKcx-8" vertex="1">
          <mxGeometry x="729" y="147" width="65" height="30" as="geometry" />
        </mxCell>
        <mxCell id="mCSv1eMPrU4gCBN5cKcx-122" value="수정요청" style="ellipse;whiteSpace=wrap;html=1;" parent="mCSv1eMPrU4gCBN5cKcx-8" vertex="1">
          <mxGeometry x="513.75" y="60" width="62" height="30" as="geometry" />
        </mxCell>
        <mxCell id="mCSv1eMPrU4gCBN5cKcx-123" value="요청수정및저장" style="ellipse;whiteSpace=wrap;html=1;" parent="mCSv1eMPrU4gCBN5cKcx-8" vertex="1">
          <mxGeometry x="622.75" y="60" width="97" height="30" as="geometry" />
        </mxCell>
        <mxCell id="mCSv1eMPrU4gCBN5cKcx-124" value="&amp;lt;&amp;lt;extend&amp;gt;&amp;gt;" style="html=1;verticalAlign=bottom;labelBackgroundColor=none;endArrow=open;endFill=0;dashed=1;rounded=0;entryX=1;entryY=0.5;entryDx=0;entryDy=0;exitX=0;exitY=0.5;exitDx=0;exitDy=0;" parent="mCSv1eMPrU4gCBN5cKcx-8" source="mCSv1eMPrU4gCBN5cKcx-114" target="mCSv1eMPrU4gCBN5cKcx-112" edge="1">
          <mxGeometry x="0.442" y="-17" width="160" relative="1" as="geometry">
            <mxPoint x="383.5" y="140" as="sourcePoint" />
            <mxPoint x="359.5" y="162" as="targetPoint" />
            <mxPoint as="offset" />
          </mxGeometry>
        </mxCell>
        <mxCell id="mCSv1eMPrU4gCBN5cKcx-125" value="&amp;lt;&amp;lt;extend&amp;gt;&amp;gt;" style="html=1;verticalAlign=bottom;labelBackgroundColor=none;endArrow=open;endFill=0;dashed=1;rounded=0;entryX=1;entryY=0.5;entryDx=0;entryDy=0;exitX=0;exitY=0.5;exitDx=0;exitDy=0;" parent="mCSv1eMPrU4gCBN5cKcx-8" source="mCSv1eMPrU4gCBN5cKcx-116" target="mCSv1eMPrU4gCBN5cKcx-112" edge="1">
          <mxGeometry x="-0.3602" y="23" width="160" relative="1" as="geometry">
            <mxPoint x="371" y="136.5" as="sourcePoint" />
            <mxPoint x="340" y="187.5" as="targetPoint" />
            <mxPoint as="offset" />
          </mxGeometry>
        </mxCell>
        <mxCell id="mCSv1eMPrU4gCBN5cKcx-126" value="&amp;lt;&amp;lt;extend&amp;gt;&amp;gt;" style="html=1;verticalAlign=bottom;labelBackgroundColor=none;endArrow=open;endFill=0;dashed=1;rounded=0;entryX=1;entryY=0.5;entryDx=0;entryDy=0;exitX=0;exitY=0.5;exitDx=0;exitDy=0;" parent="mCSv1eMPrU4gCBN5cKcx-8" source="mCSv1eMPrU4gCBN5cKcx-115" target="mCSv1eMPrU4gCBN5cKcx-112" edge="1">
          <mxGeometry x="-1" y="27" width="160" relative="1" as="geometry">
            <mxPoint x="406.5" y="143.5" as="sourcePoint" />
            <mxPoint x="383.5" y="165.5" as="targetPoint" />
            <mxPoint x="9" y="-2" as="offset" />
          </mxGeometry>
        </mxCell>
        <mxCell id="mCSv1eMPrU4gCBN5cKcx-127" value="&amp;lt;&amp;lt;extend&amp;gt;&amp;gt;" style="html=1;verticalAlign=bottom;labelBackgroundColor=none;endArrow=open;endFill=0;dashed=1;rounded=0;entryX=1;entryY=0.5;entryDx=0;entryDy=0;exitX=0;exitY=0.5;exitDx=0;exitDy=0;" parent="mCSv1eMPrU4gCBN5cKcx-8" source="mCSv1eMPrU4gCBN5cKcx-117" target="mCSv1eMPrU4gCBN5cKcx-115" edge="1">
          <mxGeometry x="-0.1304" y="25" width="160" relative="1" as="geometry">
            <mxPoint x="507" y="114.5" as="sourcePoint" />
            <mxPoint x="477" y="115.5" as="targetPoint" />
            <mxPoint as="offset" />
          </mxGeometry>
        </mxCell>
        <mxCell id="mCSv1eMPrU4gCBN5cKcx-128" value="&amp;lt;&amp;lt;extend&amp;gt;&amp;gt;" style="html=1;verticalAlign=bottom;labelBackgroundColor=none;endArrow=open;endFill=0;dashed=1;rounded=0;entryX=1;entryY=0.5;entryDx=0;entryDy=0;exitX=0;exitY=0.5;exitDx=0;exitDy=0;" parent="mCSv1eMPrU4gCBN5cKcx-8" source="mCSv1eMPrU4gCBN5cKcx-118" target="mCSv1eMPrU4gCBN5cKcx-116" edge="1">
          <mxGeometry x="0.1424" y="-3" width="160" relative="1" as="geometry">
            <mxPoint x="500" y="170" as="sourcePoint" />
            <mxPoint x="477" y="170" as="targetPoint" />
            <mxPoint as="offset" />
          </mxGeometry>
        </mxCell>
        <mxCell id="mCSv1eMPrU4gCBN5cKcx-130" value="&amp;lt;&amp;lt;extend&amp;gt;&amp;gt;" style="html=1;verticalAlign=bottom;labelBackgroundColor=none;endArrow=open;endFill=0;dashed=1;rounded=0;entryX=1;entryY=0.5;entryDx=0;entryDy=0;exitX=0;exitY=0.5;exitDx=0;exitDy=0;" parent="mCSv1eMPrU4gCBN5cKcx-8" source="mCSv1eMPrU4gCBN5cKcx-119" target="mCSv1eMPrU4gCBN5cKcx-116" edge="1">
          <mxGeometry x="-0.1304" y="25" width="160" relative="1" as="geometry">
            <mxPoint x="500" y="200" as="sourcePoint" />
            <mxPoint x="477" y="200" as="targetPoint" />
            <mxPoint as="offset" />
          </mxGeometry>
        </mxCell>
        <mxCell id="mCSv1eMPrU4gCBN5cKcx-131" value="&amp;lt;&amp;lt;include&amp;gt;&amp;gt;" style="html=1;verticalAlign=bottom;labelBackgroundColor=none;endArrow=open;endFill=0;dashed=1;rounded=0;exitX=1;exitY=0.5;exitDx=0;exitDy=0;entryX=0;entryY=0.5;entryDx=0;entryDy=0;" parent="mCSv1eMPrU4gCBN5cKcx-8" source="mCSv1eMPrU4gCBN5cKcx-118" target="mCSv1eMPrU4gCBN5cKcx-120" edge="1">
          <mxGeometry width="160" relative="1" as="geometry">
            <mxPoint x="569" y="180.5" as="sourcePoint" />
            <mxPoint x="624" y="180.5" as="targetPoint" />
          </mxGeometry>
        </mxCell>
        <mxCell id="mCSv1eMPrU4gCBN5cKcx-135" value="&amp;lt;&amp;lt;extend&amp;gt;&amp;gt;" style="html=1;verticalAlign=bottom;labelBackgroundColor=none;endArrow=open;endFill=0;dashed=1;rounded=0;entryX=1;entryY=0.5;entryDx=0;entryDy=0;exitX=0;exitY=0.5;exitDx=0;exitDy=0;" parent="mCSv1eMPrU4gCBN5cKcx-8" source="mCSv1eMPrU4gCBN5cKcx-122" edge="1" target="mCSv1eMPrU4gCBN5cKcx-115">
          <mxGeometry x="-0.2527" y="19" width="160" relative="1" as="geometry">
            <mxPoint x="508.25" y="74.5" as="sourcePoint" />
            <mxPoint x="478.25" y="75.5" as="targetPoint" />
            <mxPoint as="offset" />
          </mxGeometry>
        </mxCell>
        <mxCell id="mCSv1eMPrU4gCBN5cKcx-136" value="&amp;lt;&amp;lt;include&amp;gt;&amp;gt;" style="html=1;verticalAlign=bottom;labelBackgroundColor=none;endArrow=open;endFill=0;dashed=1;rounded=0;exitX=1;exitY=0.5;exitDx=0;exitDy=0;entryX=0;entryY=0.5;entryDx=0;entryDy=0;" parent="mCSv1eMPrU4gCBN5cKcx-8" edge="1" target="mCSv1eMPrU4gCBN5cKcx-123">
          <mxGeometry width="160" relative="1" as="geometry">
            <mxPoint x="575.75" y="74.75999999999999" as="sourcePoint" />
            <mxPoint x="611.75" y="74.75999999999999" as="targetPoint" />
          </mxGeometry>
        </mxCell>
        <mxCell id="mCSv1eMPrU4gCBN5cKcx-139" value="&amp;lt;&amp;lt;extend&amp;gt;&amp;gt;" style="html=1;verticalAlign=bottom;labelBackgroundColor=none;endArrow=open;endFill=0;dashed=1;rounded=0;exitX=0;exitY=0.5;exitDx=0;exitDy=0;entryX=1;entryY=0.5;entryDx=0;entryDy=0;" parent="mCSv1eMPrU4gCBN5cKcx-8" source="mCSv1eMPrU4gCBN5cKcx-121" edge="1">
          <mxGeometry x="-0.1833" y="-1" width="160" relative="1" as="geometry">
            <mxPoint x="719" y="161.76" as="sourcePoint" />
            <mxPoint x="675" y="161.76" as="targetPoint" />
            <mxPoint as="offset" />
          </mxGeometry>
        </mxCell>
        <mxCell id="mCSv1eMPrU4gCBN5cKcx-142" value="다운" style="ellipse;whiteSpace=wrap;html=1;" parent="mCSv1eMPrU4gCBN5cKcx-8" vertex="1">
          <mxGeometry x="637" y="103" width="40" height="24" as="geometry" />
        </mxCell>
        <mxCell id="mCSv1eMPrU4gCBN5cKcx-143" value="&amp;lt;&amp;lt;extend&amp;gt;&amp;gt;" style="html=1;verticalAlign=bottom;labelBackgroundColor=none;endArrow=open;endFill=0;dashed=1;rounded=0;entryX=1;entryY=0.5;entryDx=0;entryDy=0;exitX=0;exitY=0.5;exitDx=0;exitDy=0;" parent="mCSv1eMPrU4gCBN5cKcx-8" source="mCSv1eMPrU4gCBN5cKcx-142" target="mCSv1eMPrU4gCBN5cKcx-117" edge="1">
          <mxGeometry x="-0.1304" y="25" width="160" relative="1" as="geometry">
            <mxPoint x="613" y="115" as="sourcePoint" />
            <mxPoint x="590" y="115" as="targetPoint" />
            <mxPoint as="offset" />
          </mxGeometry>
        </mxCell>
        <mxCell id="mCSv1eMPrU4gCBN5cKcx-62" value="DB" style="shape=cylinder3;whiteSpace=wrap;html=1;boundedLbl=1;backgroundOutline=1;size=15;" parent="1" vertex="1">
          <mxGeometry x="1010" y="1174" width="96" height="80" as="geometry" />
        </mxCell>
        <mxCell id="mCSv1eMPrU4gCBN5cKcx-63" value="사용자" style="shape=umlActor;verticalLabelPosition=bottom;verticalAlign=top;html=1;outlineConnect=0;" parent="1" vertex="1">
          <mxGeometry x="61" y="1240" width="30" height="60" as="geometry" />
        </mxCell>
        <mxCell id="mCSv1eMPrU4gCBN5cKcx-64" value="" style="endArrow=none;html=1;rounded=0;entryX=0;entryY=0.5;entryDx=0;entryDy=0;" parent="1" target="mCSv1eMPrU4gCBN5cKcx-12" edge="1">
          <mxGeometry width="50" height="50" relative="1" as="geometry">
            <mxPoint x="91" y="1161" as="sourcePoint" />
            <mxPoint x="131" y="1201" as="targetPoint" />
          </mxGeometry>
        </mxCell>
        <mxCell id="mCSv1eMPrU4gCBN5cKcx-140" style="edgeStyle=orthogonalEdgeStyle;rounded=0;orthogonalLoop=1;jettySize=auto;html=1;exitX=0.5;exitY=1;exitDx=0;exitDy=0;entryX=0.5;entryY=1;entryDx=0;entryDy=0;entryPerimeter=0;" parent="1" source="mCSv1eMPrU4gCBN5cKcx-71" target="mCSv1eMPrU4gCBN5cKcx-62" edge="1">
          <mxGeometry relative="1" as="geometry">
            <Array as="points">
              <mxPoint x="435" y="1480" />
              <mxPoint x="1058" y="1480" />
            </Array>
          </mxGeometry>
        </mxCell>
        <mxCell id="mCSv1eMPrU4gCBN5cKcx-141" style="edgeStyle=orthogonalEdgeStyle;rounded=0;orthogonalLoop=1;jettySize=auto;html=1;exitX=0.5;exitY=0;exitDx=0;exitDy=0;entryX=0.5;entryY=0;entryDx=0;entryDy=0;entryPerimeter=0;" parent="1" source="mCSv1eMPrU4gCBN5cKcx-112" target="mCSv1eMPrU4gCBN5cKcx-62" edge="1">
          <mxGeometry relative="1" as="geometry">
            <Array as="points">
              <mxPoint x="435" y="950" />
              <mxPoint x="1058" y="950" />
            </Array>
          </mxGeometry>
        </mxCell>
      </root>
    </mxGraphModel>
  </diagram>
</mxfile>
